<?xml version="1.0" encoding="iso-8859-1"?>
<!-- Generator: Adobe Illustrator 19.0.0, SVG Export Plug-In . SVG Version: 6.00 Build 0)  -->
<svg xmlns="http://www.w3.org/2000/svg" xmlns:xlink="http://www.w3.org/1999/xlink" version="1.1" id="Layer_1" x="0px" y="0px" viewBox="0 0 512 512" style="enable-background:new 0 0 512 512;" xml:space="preserve" width="512px" height="512px">
<g>
	<g>
		<path d="M0,31.668v448.663h512V31.668H0z M496.139,464.47H15.861V121.423h480.277V464.47z M496.139,105.561H15.861V47.53h480.277    V105.561z" fill="#FFFFFF"/>
	</g>
</g>
<g>
	<g>
		<rect x="39.6" y="68.615" width="21.113" height="15.861" fill="#FFFFFF"/>
	</g>
</g>
<g>
	<g>
		<rect x="71.271" y="68.615" width="21.113" height="15.861" fill="#FFFFFF"/>
	</g>
</g>
<g>
	<g>
		<rect x="451.289" y="68.615" width="21.113" height="15.861" fill="#FFFFFF"/>
	</g>
</g>
<g>
	<g>
		<path d="M36.947,142.508v300.877h438.107V142.508H36.947z M300.85,427.524H52.808V158.369H300.85V427.524z M459.193,427.523    H316.712V232.261h142.481V427.523z M459.193,216.4h-0.001h-142.48v-58.032h142.481V216.4z" fill="#FFFFFF"/>
	</g>
</g>
<g>
	<g>
		<path d="M147.786,184.732v205.873h58.087V184.732H147.786z M190.011,374.742h-26.364V200.593h26.364V374.742z" fill="#FFFFFF"/>
	</g>
</g>
<g>
	<g>
		<path d="M221.679,274.459v116.145h58.087V274.459H221.679z M237.54,374.743v-84.422h26.364v84.422H237.54z" fill="#FFFFFF"/>
	</g>
</g>
<g>
	<g>
		<path d="M73.893,290.294v100.311h58.086V290.294H73.893z M116.117,374.742H89.754v-68.588h26.363V374.742z" fill="#FFFFFF"/>
	</g>
</g>
<g>
	<g>
		<rect x="335.173" y="179.455" width="68.615" height="15.861" fill="#FFFFFF"/>
	</g>
</g>
<g>
	<g>
		<rect x="356.29" y="258.625" width="84.446" height="15.861" fill="#FFFFFF"/>
	</g>
</g>
<g>
	<g>
		<rect x="335.173" y="295.572" width="105.563" height="15.861" fill="#FFFFFF"/>
	</g>
</g>
<g>
	<g>
		<rect x="335.173" y="337.795" width="105.563" height="15.861" fill="#FFFFFF"/>
	</g>
</g>
<g>
	<g>
		<rect x="335.173" y="380.018" width="89.723" height="15.861" fill="#FFFFFF"/>
	</g>
</g>
<g>
	<g>
		<rect x="419.619" y="179.455" width="21.113" height="15.861" fill="#FFFFFF"/>
	</g>
</g>
<g>
</g>
<g>
</g>
<g>
</g>
<g>
</g>
<g>
</g>
<g>
</g>
<g>
</g>
<g>
</g>
<g>
</g>
<g>
</g>
<g>
</g>
<g>
</g>
<g>
</g>
<g>
</g>
<g>
</g>
</svg>
